<?xml version="1.0" encoding="UTF-8" standalone="no"?>
<!DOCTYPE svg PUBLIC "-//W3C//DTD SVG 1.1//EN"
 "http://www.w3.org/Graphics/SVG/1.1/DTD/svg11.dtd">
<!-- Generated by graphviz version 2.40.1 (20161225.0304)
 -->
<!-- Title: dependencies Pages: 1 -->
<svg width="700pt" height="284pt"
 viewBox="0.00 0.00 700.00 284.00" xmlns="http://www.w3.org/2000/svg" xmlns:xlink="http://www.w3.org/1999/xlink">
<g id="graph0" class="graph" transform="scale(1 1) rotate(0) translate(4 280)">
<title>dependencies</title>
<polygon fill="#ffffff" stroke="transparent" points="-4,4 -4,-280 696,-280 696,4 -4,4"/>
<text text-anchor="start" x="325.0091" y="-42.4" font-family="sans-serif" font-weight="bold" font-size="14.00" fill="#000000">Legend</text>
<polygon fill="#ffffb3" stroke="transparent" points="112,-10 112,-30 132,-30 132,-10 112,-10"/>
<text text-anchor="start" x="135.629" y="-15.4" font-family="sans-serif" font-size="14.00" fill="#000000"> &#160;Declarations</text>
<polygon fill="#8dd3c7" stroke="transparent" points="225,-10 225,-30 245,-30 245,-10 225,-10"/>
<text text-anchor="start" x="248.7251" y="-15.4" font-family="sans-serif" font-size="14.00" fill="#000000"> &#160;Module</text>
<polygon fill="#80b1d3" stroke="transparent" points="311,-10 311,-30 331,-30 331,-10 311,-10"/>
<text text-anchor="start" x="334.7812" y="-15.4" font-family="sans-serif" font-size="14.00" fill="#000000"> &#160;Bootstrap</text>
<polygon fill="#fdb462" stroke="transparent" points="408,-10 408,-30 428,-30 428,-10 408,-10"/>
<text text-anchor="start" x="431.6732" y="-15.4" font-family="sans-serif" font-size="14.00" fill="#000000"> &#160;Providers</text>
<polygon fill="#fb8072" stroke="transparent" points="504,-10 504,-30 524,-30 524,-10 504,-10"/>
<text text-anchor="start" x="527.7258" y="-15.4" font-family="sans-serif" font-size="14.00" fill="#000000"> &#160;Exports</text>
<g id="clust1" class="cluster">
<title>cluster_AppModule</title>
<polygon fill="none" stroke="#000000" stroke-dasharray="1,5" points="8,-70 8,-268 684,-268 684,-70 8,-70"/>
</g>
<g id="clust2" class="cluster">
<title>cluster_AppModule_declarations</title>
<polygon fill="none" stroke="#000000" points="16,-78 16,-130 676,-130 676,-78 16,-78"/>
</g>
<g id="clust9" class="cluster">
<title>cluster_AppModule_bootstrap</title>
<polygon fill="none" stroke="#000000" points="324,-208 324,-260 448,-260 448,-208 324,-208"/>
</g>
<!-- AppComponent -->
<g id="node1" class="node">
<title>AppComponent</title>
<polygon fill="#ffffb3" stroke="#000000" points="667.9399,-122 562.0601,-122 562.0601,-86 667.9399,-86 667.9399,-122"/>
<text text-anchor="middle" x="615" y="-99.8" font-family="Times,serif" font-size="14.00" fill="#000000">AppComponent</text>
</g>
<!-- AppModule -->
<g id="node5" class="node">
<title>AppModule</title>
<polygon fill="#8dd3c7" stroke="#000000" points="427.6571,-187 424.6571,-191 403.6571,-191 400.6571,-187 344.3429,-187 344.3429,-151 427.6571,-151 427.6571,-187"/>
<text text-anchor="middle" x="386" y="-164.8" font-family="Times,serif" font-size="14.00" fill="#000000">AppModule</text>
</g>
<!-- AppComponent&#45;&gt;AppModule -->
<g id="edge1" class="edge">
<title>AppComponent&#45;&gt;AppModule</title>
<path fill="none" stroke="#000000" d="M615,-122.1061C615,-141.3391 615,-169 615,-169 615,-169 437.7359,-169 437.7359,-169"/>
<polygon fill="#000000" stroke="#000000" points="437.7359,-165.5001 427.7359,-169 437.7358,-172.5001 437.7359,-165.5001"/>
</g>
<!-- FormErrorsComponent -->
<g id="node2" class="node">
<title>FormErrorsComponent</title>
<polygon fill="#ffffb3" stroke="#000000" points="544.1456,-122 397.8544,-122 397.8544,-86 544.1456,-86 544.1456,-122"/>
<text text-anchor="middle" x="471" y="-99.8" font-family="Times,serif" font-size="14.00" fill="#000000">FormErrorsComponent</text>
</g>
<!-- FormErrorsComponent&#45;&gt;AppModule -->
<g id="edge2" class="edge">
<title>FormErrorsComponent&#45;&gt;AppModule</title>
<path fill="none" stroke="#000000" d="M412.7528,-122.1061C412.7528,-122.1061 412.7528,-140.991 412.7528,-140.991"/>
<polygon fill="#000000" stroke="#000000" points="409.2529,-140.9909 412.7528,-150.991 416.2529,-140.991 409.2529,-140.9909"/>
</g>
<!-- FormTextboxComponent -->
<g id="node3" class="node">
<title>FormTextboxComponent</title>
<polygon fill="#ffffb3" stroke="#000000" points="380.3243,-122 221.6757,-122 221.6757,-86 380.3243,-86 380.3243,-122"/>
<text text-anchor="middle" x="301" y="-99.8" font-family="Times,serif" font-size="14.00" fill="#000000">FormTextboxComponent</text>
</g>
<!-- FormTextboxComponent&#45;&gt;AppModule -->
<g id="edge3" class="edge">
<title>FormTextboxComponent&#45;&gt;AppModule</title>
<path fill="none" stroke="#000000" d="M362.1669,-122.1061C362.1669,-122.1061 362.1669,-140.991 362.1669,-140.991"/>
<polygon fill="#000000" stroke="#000000" points="358.667,-140.9909 362.1669,-150.991 365.667,-140.991 358.667,-140.9909"/>
</g>
<!-- RegistrationFormComponent -->
<g id="node4" class="node">
<title>RegistrationFormComponent</title>
<polygon fill="#ffffb3" stroke="#000000" points="204.0996,-122 23.9004,-122 23.9004,-86 204.0996,-86 204.0996,-122"/>
<text text-anchor="middle" x="114" y="-99.8" font-family="Times,serif" font-size="14.00" fill="#000000">RegistrationFormComponent</text>
</g>
<!-- RegistrationFormComponent&#45;&gt;AppModule -->
<g id="edge4" class="edge">
<title>RegistrationFormComponent&#45;&gt;AppModule</title>
<path fill="none" stroke="#000000" d="M114,-122.1061C114,-141.3391 114,-169 114,-169 114,-169 334.0961,-169 334.0961,-169"/>
<polygon fill="#000000" stroke="#000000" points="334.0961,-172.5001 344.0961,-169 334.0961,-165.5001 334.0961,-172.5001"/>
</g>
<!-- AppComponent  -->
<g id="node6" class="node">
<title>AppComponent </title>
<polygon fill="#80b1d3" stroke="#000000" points="440.439,-252 331.561,-252 331.561,-216 440.439,-216 440.439,-252"/>
<text text-anchor="middle" x="386" y="-229.8" font-family="Times,serif" font-size="14.00" fill="#000000">AppComponent </text>
</g>
<!-- AppModule&#45;&gt;AppComponent  -->
<g id="edge5" class="edge">
<title>AppModule&#45;&gt;AppComponent </title>
<path fill="none" stroke="#000000" stroke-dasharray="1,5" d="M386,-187.1061C386,-187.1061 386,-205.991 386,-205.991"/>
<polygon fill="#000000" stroke="#000000" points="382.5001,-205.9909 386,-215.991 389.5001,-205.991 382.5001,-205.9909"/>
</g>
</g>
</svg>
